<?xml version="1.0" encoding="UTF-8"?>
<svg width="74px" height="74px" viewBox="0 0 74 74" version="1.1" xmlns="http://www.w3.org/2000/svg" xmlns:xlink="http://www.w3.org/1999/xlink">
    <!-- Generator: sketchtool 52.2 (67145) - http://www.bohemiancoding.com/sketch -->
    <title>C0B40BF6-1174-4137-A74B-5FF9967FF87F</title>
    <desc>Created with sketchtool.</desc>
    <defs>
        <path d="M3.33975904,0.100170732 C2.58529282,0.0971784518 1.86489322,0.413623895 1.35722892,0.97102439 C0.905552613,1.44579402 0.645796646,2.0707119 0.628012048,2.72536585 L0.628012048,2.90765854 C0.637048193,3.22712195 0.700301205,3.52853659 0.814156627,3.8064878 C0.818674699,3.82904878 0.828614458,3.8525122 0.836746988,3.87507317 C0.956017639,4.16114496 1.12589729,4.4234281 1.33825301,4.64936585 C1.34728916,4.66380488 1.36174699,4.67643902 1.37439759,4.69087805 L10.0210843,14.9552195 L13.1430723,18.6606341 L22.4864458,29.7507073 L25.6039157,33.4507073 L33.9731928,43.3838537 L37.0906627,47.0838537 L37.0906627,73.0289756 C38.9268072,73.0289756 40.5957831,72.298 41.821988,71.1185122 C41.826506,71.1185122 41.826506,71.1185122 41.826506,71.114 L42.7463855,70.0202439 L65.186747,43.3838537 L72.8710843,34.2629024 C72.9072289,34.2213902 72.9433735,34.1816829 72.9759036,34.1356585 C73.1394578,33.9299024 73.2722892,33.7024878 73.3680723,33.4516098 C73.4909639,33.1447805 73.5551205,32.8171951 73.5551205,32.4670488 L73.5551205,2.81741463 C73.5551205,2.10178049 73.2768072,1.44480488 72.8204819,0.967414634 C72.3103413,0.414016927 71.5911377,0.0997337575 70.8379518,0.101073171 L3.33975904,0.101073171 L3.33975904,0.100170732 Z" id="path-1"></path>
    </defs>
    <g id="UI" stroke="none" stroke-width="1" fill="none" fill-rule="evenodd">
        <g id="awesome-design-plugins-v3-banners" transform="translate(-543.000000, -322.000000)">
            <g id="Group-2-Copy-2" transform="translate(520.000000, 281.000000)">
                <g id="protopie-logo" transform="translate(23.000000, 41.000000)">
                    <g id="Group" transform="translate(0.028916, 0.374512)">
                        <g id="Clipped">
                            <mask id="mask-2" fill="white">
                                <use xlink:href="#path-1"></use>
                            </mask>
                            <g id="a"></g>
                            <path d="M3.33975904,0.100170732 C2.58529282,0.0971784518 1.86489322,0.413623895 1.35722892,0.97102439 C0.905552613,1.44579402 0.645796646,2.0707119 0.628012048,2.72536585 L0.628012048,2.90765854 C0.637048193,3.22712195 0.700301205,3.52853659 0.814156627,3.8064878 C0.818674699,3.82904878 0.828614458,3.8525122 0.836746988,3.87507317 C0.956017639,4.16114496 1.12589729,4.4234281 1.33825301,4.64936585 C1.34728916,4.66380488 1.36174699,4.67643902 1.37439759,4.69087805 L10.0210843,14.9552195 L13.1430723,18.6606341 L22.4864458,29.7507073 L25.6039157,33.4507073 L33.9731928,43.3838537 L37.0906627,47.0838537 L37.0906627,73.0289756 C38.9268072,73.0289756 40.5957831,72.298 41.821988,71.1185122 C41.826506,71.1185122 41.826506,71.1185122 41.826506,71.114 L42.7463855,70.0202439 L65.186747,43.3838537 L72.8710843,34.2629024 C72.9072289,34.2213902 72.9433735,34.1816829 72.9759036,34.1356585 C73.1394578,33.9299024 73.2722892,33.7024878 73.3680723,33.4516098 C73.4909639,33.1447805 73.5551205,32.8171951 73.5551205,32.4670488 L73.5551205,2.81741463 C73.5551205,2.10178049 73.2768072,1.44480488 72.8204819,0.967414634 C72.3103413,0.414016927 71.5911377,0.0997337575 70.8379518,0.101073171 L3.33975904,0.101073171 L3.33975904,0.100170732 Z" id="Path" mask="url(#mask-2)"></path>
                        </g>
                    </g>
                    <path d="M3.3686747,0.475585366 C2.61420848,0.472593086 1.89380888,0.789038529 1.38614458,1.34643902 C0.93413832,1.82107178 0.674053952,2.44600534 0.656024096,3.10078049 L0.656024096,3.28307317 C0.665060241,3.60253659 0.729216867,3.90395122 0.843072289,4.181 C0.846686747,4.20356098 0.85753012,4.22702439 0.865662651,4.24958537 C0.984837869,4.53597715 1.15472206,4.79857298 1.36716867,5.02478049 C1.37620482,5.03831707 1.38975904,5.05185366 1.40331325,5.06539024 L10.05,15.3297317 L13.171988,19.0360488 L22.5153614,30.1252195 L25.6328313,33.826122 L34.0012048,43.7583659 L37.1186747,47.4592683 L37.1186747,73.4043902 C38.9557229,73.4043902 40.6246988,72.6734146 41.85,71.4930244 C41.8545181,71.4930244 41.8545181,71.4930244 41.8545181,71.4894146 L42.7762048,70.3947561 L65.2138554,43.7592683 L72.8981928,34.6383171 C72.9343373,34.5977073 72.9713855,34.5570976 73.003012,34.5119756 C73.1674699,34.3062195 73.2993976,34.0788049 73.3951807,33.8270244 C73.5180723,33.5210976 73.5822289,33.1935122 73.5822289,32.8433659 L73.5822289,3.19102439 C73.5822289,2.47629268 73.3048193,1.81931707 72.848494,1.34102439 C72.3383533,0.787626683 71.6191498,0.473343514 70.8659639,0.474682927 L3.3686747,0.474682927 L3.3686747,0.475585366 Z" id="Path" fill="#FE5E5A"></path>
                    <path d="M37.1195783,62.3089024 L37.1195783,73.4043914 C35.3538837,73.4053977 33.6570745,72.7202425 32.388253,71.4939268 C32.3837349,71.4939268 32.3837349,71.4939268 32.3837349,71.4894146 L31.4629518,70.3956585 L9.02439759,43.7592683 L1.38524096,34.6924634 C1.36808292,34.677952 1.35289444,34.6612664 1.34006024,34.6428293 L1.22168675,34.5011463 C1.21156801,34.491595 1.202482,34.4810085 1.19457831,34.469561 C1.04581141,34.2731186 0.925924275,34.0564477 0.838554217,33.826122 C0.726278421,33.5411463 0.664513733,33.238832 0.656024096,32.9327073 L0.656024096,32.7504146 C0.674096386,32.0672683 0.947891566,31.4563171 1.38524096,30.991561 C1.89546202,30.4377463 2.61512811,30.1234042 3.3686747,30.1252195 L9.99487952,30.1252195 L13.1123494,33.826122 L21.4807229,43.7583659 L35.2003012,60.0392683 L37.1150602,62.3134146 L37.1195783,62.3089024 Z" id="Path" fill="#FCD1CA"></path>
                    <path d="M37.1195783,47.4592683 L37.1195783,62.3089024 L37.1150602,62.3134146 L35.2003012,60.0392683 L21.4807229,43.7592683 L13.113253,33.8270244 L9.99578313,30.126122 L1.33463855,19.8527561 C1.12116308,19.6125711 0.952806453,19.3359083 0.837650602,19.0360488 C0.725706278,18.7497909 0.664551099,18.4462451 0.656927711,18.1390244 L0.656927711,17.9567317 C0.675,17.2771951 0.947891566,16.6662439 1.38524096,16.2014878 C1.89348124,15.64447 2.61410464,15.3283983 3.3686747,15.3315366 L10.05,15.3315366 L13.171988,19.0360488 L22.5153614,30.126122 L25.6328313,33.8270244 L34.0012048,43.7592683 L37.1186747,47.4592683 L37.1195783,47.4592683 Z" id="Path" fill="#FF9D8D"></path>
                </g>
            </g>
        </g>
    </g>
</svg>