<?xml version="1.0" encoding="UTF-8"?>
<svg width="72px" height="72px" viewBox="0 0 72 72" version="1.1" xmlns="http://www.w3.org/2000/svg" xmlns:xlink="http://www.w3.org/1999/xlink">
    <!-- Generator: sketchtool 52.2 (67145) - http://www.bohemiancoding.com/sketch -->
    <title>F58739A5-EC35-4CAF-9A96-8A3813904B8E</title>
    <desc>Created with sketchtool.</desc>
    <g id="UI" stroke="none" stroke-width="1" fill="none" fill-rule="evenodd">
        <g id="awesome-design-plugins-v3-banners" transform="translate(-544.000000, -151.000000)" fill="#171B1F" fill-rule="nonzero">
            <g id="Group-2-Copy" transform="translate(520.000000, 112.000000)">
                <g id="supernova-logo" transform="translate(24.000000, 39.000000)">
                    <path d="M35.292,0 L38.412,0 C47.928,1.512 52.812,11.34 54.192,19.98 C62.112,21.636 70.8,26.496 72,35.292 L72,38.412 C70.488,47.964 60.648,52.788 52.02,54.216 C50.388,62.148 45.468,70.8 36.684,72 L33.588,72 C24.048,70.488 19.2,60.648 17.808,52.02 C9.876,50.364 1.2,45.504 1.77635684e-15,36.708 L1.77635684e-15,33.588 C1.512,24.06 11.34,19.2 19.968,17.808 C21.612,9.864 26.52,1.212 35.292,2.13162821e-15 Z M30.384,10.08 C26.016,15.588 25.548,23.124 26.82,29.796 C31.74,23.652 39.264,20.004 47.076,19.5 C46.164,14.712 44.208,9.348 39.48,7.152 C36.216,5.58 32.424,7.392 30.384,10.08 Z M7.128,32.568 C5.592,35.832 7.416,39.6 10.104,41.64 C15.624,45.984 23.148,46.44 29.82,45.192 C23.628,40.296 20.004,32.736 19.488,24.912 C14.7,25.836 9.312,27.804 7.128,32.568 Z M42.144,26.808 C48.348,31.704 51.948,39.264 52.452,47.088 C57.24,46.188 62.616,44.244 64.836,39.516 C66.576,35.928 64.272,31.86 61.224,29.856 C55.728,25.932 48.576,25.668 42.144,26.808 Z M33.876,31.464 C30.576,32.88 30.024,37.872 33,39.912 C36,42.552 41.112,39.888 40.968,36 C41.076,32.52 36.972,29.88 33.876,31.464 Z M24.924,52.5 C25.836,57.312 27.816,62.7 32.592,64.884 C35.832,66.396 39.552,64.608 41.58,61.956 C45.984,56.424 46.452,48.852 45.168,42.144 C40.296,48.372 32.748,51.96 24.924,52.5 Z" id="Shape"></path>
                </g>
            </g>
        </g>
    </g>
</svg>