<?xml version="1.0" encoding="UTF-8"?>
<svg width="62px" height="60px" viewBox="0 0 62 60" version="1.1" xmlns="http://www.w3.org/2000/svg" xmlns:xlink="http://www.w3.org/1999/xlink">
    <!-- Generator: sketchtool 52.2 (67145) - http://www.bohemiancoding.com/sketch -->
    <title>56FF3D09-AF5C-48EA-BA2B-0B04FB273D48</title>
    <desc>Created with sketchtool.</desc>
    <g id="UI" stroke="none" stroke-width="1" fill="none" fill-rule="evenodd">
        <g id="awesome-design-plugins-v3-banners" transform="translate(-549.000000, -663.000000)">
            <g id="Group-2-Copy-2" transform="translate(520.000000, 619.000000)">
                <g id="xd-logo" transform="translate(29.000000, 44.000000)">
                    <path d="M51.0208333,60 L10.9791667,60 C4.90833333,60 0,55.1282051 0,49.1025641 L0,10.8974359 C0,4.87179487 4.90833333,0 10.9791667,0 L51.0208333,0 C57.0916667,0 62,4.87179487 62,10.8974359 L62,49.1025641 C62,55.1282051 57.0916667,60 51.0208333,60 Z" id="Path" fill="#FF26BE"></path>
                    <path d="M49.6165448,58 L11.4092574,58 C6.22509353,58 2,53.8107477 2,48.6705607 L2,12.3294393 C2,7.18925234 6.22509353,3 11.4092574,3 L49.590624,3 C54.8007087,3 59,7.18925234 59,12.3294393 L59,48.6448598 C59.0258022,53.8107477 54.8007087,58 49.6165448,58 Z" id="Path" fill="#2E001F"></path>
                    <g id="Group" transform="translate(11.000000, 15.000000)" fill="#FFD9F2">
                        <path d="M13.0689189,13.4954955 L20.2581081,27.0666667 C20.3864865,27.2684685 20.3094595,27.4702703 20.1040541,27.4702703 L15.6364865,27.4702703 C15.3540541,27.4702703 15.2256757,27.3945946 15.0972973,27.1423423 C13.4540541,23.8126126 11.7851351,20.4828829 10.0648649,16.9009009 L10.0135135,16.9009009 C8.47297297,20.2810811 6.77837838,23.8378378 5.13513514,27.1675676 C5.00675676,27.3693694 4.87837838,27.445045 4.67297297,27.445045 L0.436486486,27.445045 C0.17972973,27.445045 0.154054054,27.2432432 0.282432432,27.0918919 L7.31756757,13.9243243 L0.513513514,0.605405405 C0.359459459,0.403603604 0.513513514,0.252252252 0.667567568,0.252252252 L5.08378378,0.252252252 C5.34054054,0.252252252 5.44324324,0.302702703 5.54594595,0.52972973 C7.16351351,3.85945946 8.80675676,7.29009009 10.3472973,10.645045 L10.3986486,10.645045 C11.8878378,7.31531532 13.5310811,3.85945946 15.122973,0.554954955 C15.2513514,0.353153153 15.3283784,0.227027027 15.5851351,0.227027027 L19.7189189,0.227027027 C19.9243243,0.227027027 20.0013514,0.378378378 19.872973,0.58018018 L13.0689189,13.4954955 Z" id="Path"></path>
                        <path d="M21.5162162,17.6072072 C21.5162162,11.7297297 25.4959459,7.13873874 31.8121622,7.13873874 C32.3513514,7.13873874 32.6337838,7.13873874 33.1472973,7.18918919 L33.1472973,0.504504505 C33.1472973,0.353153153 33.2756757,0.252252252 33.4040541,0.252252252 L37.4608108,0.252252252 C37.6662162,0.252252252 37.7175676,0.327927928 37.7175676,0.454054054 L37.7175676,23.6108108 C37.7175676,24.2918919 37.7175676,25.1495495 37.8459459,26.0828829 C37.8459459,26.2342342 37.7945946,26.2846847 37.6405405,26.3603604 C35.4837838,27.3693694 33.2243243,27.8235636 31.0675676,27.8235636 C25.4959459,27.8486486 21.5162162,24.4684685 21.5162162,17.6072072 Z M33.1472973,11.1495495 C32.7878378,10.9981982 32.2743243,10.8972973 31.6581081,10.8972973 C28.422973,10.8972973 26.1635135,13.3441441 26.1635135,17.4054054 C26.1635135,22.0468468 28.4743243,23.9135135 31.3756757,23.9135135 C31.9918919,23.9135135 32.6594595,23.8378378 33.1472973,23.636036 L33.1472973,11.1495495 Z" id="Shape" fill-rule="nonzero"></path>
                    </g>
                </g>
            </g>
        </g>
    </g>
</svg>