<?xml version="1.0" encoding="UTF-8"?>
<svg width="15px" height="15px" viewBox="0 0 15 15" version="1.1" xmlns="http://www.w3.org/2000/svg" xmlns:xlink="http://www.w3.org/1999/xlink">
    <!-- Generator: sketchtool 52.2 (67145) - http://www.bohemiancoding.com/sketch -->
    <title>67C5A0D6-5EC7-4EB6-B0AA-3D22564ACFA1</title>
    <desc>Created with sketchtool.</desc>
    <g id="UI" stroke="none" stroke-width="1" fill="none" fill-rule="evenodd">
        <g id="awesome-design-plugins-v3" transform="translate(-948.000000, -611.000000)">
            <g id="content" transform="translate(520.000000, 469.000000)">
                <g id="design-tool-item" transform="translate(0.000000, 135.000000)">
                    <g id="sketch-support-tag" transform="translate(421.000000, 1.000000)">
                        <g id="adobe-xd-1" transform="translate(7.000000, 6.000000)">
                            <path d="M12.3438,14.9969237 L2.6562,14.9969237 C1.1874,14.9969237 0,13.7793273 0,12.2731747 L0,2.72374897 C0,1.21759639 1.1874,0 2.6562,0 L12.3438,0 C13.8126,0 15,1.21759639 15,2.72374897 L15,12.2731747 C15,13.7793273 13.8126,14.9969237 12.3438,14.9969237 Z" id="Path" fill="#FF26BE"></path>
                            <path d="M12.1062,14.3558244 L2.8938,14.3558244 C1.644,14.3558244 0.6252,13.3111157 0.6252,12.0295324 L0.6252,2.9673913 C0.6252,1.68580804 1.644,0.641099262 2.8938,0.641099262 L12.1002,0.641099262 C13.3566,0.641099262 14.3688,1.68580804 14.3688,2.9673913 L14.3688,12.0233798 C14.3748,13.3111157 13.356,14.3558244 12.1062,14.3558244 Z" id="Path" fill="#2E001F"></path>
                            <path d="M5.931,7.01763741 L7.6812,10.4655455 C7.7124,10.516612 7.6938,10.5682937 7.6434,10.5682937 L6.5556,10.5682937 C6.4866,10.5682937 6.4554,10.5492207 6.4242,10.4852338 C6.024,9.63925349 5.6178,8.79327317 5.199,7.88330599 L5.1864,7.88330599 C4.8114,8.74220673 4.3986,9.64602133 3.999,10.4920016 C3.9678,10.5430681 3.9366,10.5627564 3.8862,10.5627564 L2.856,10.5627564 C2.7936,10.5627564 2.787,10.5116899 2.8188,10.4729286 L4.5312,7.1271534 L2.8752,3.74323216 C2.8374,3.69216571 2.8752,3.65340443 2.9124,3.65340443 L3.9876,3.65340443 C4.05,3.65340443 4.0752,3.66632486 4.0998,3.72415915 C4.4934,4.57013946 4.8936,5.44196062 5.2686,6.29409352 L5.2812,6.29409352 C5.6436,5.44811321 6.0438,4.57013946 6.4314,3.73031173 C6.4626,3.67924528 6.4812,3.64725185 6.5442,3.64725185 L7.5504,3.64725185 C7.6002,3.64725185 7.6194,3.68601313 7.5882,3.73707957 L5.931,7.01763741 Z M7.9878,8.06234619 C7.9878,6.56911403 8.9568,5.40258409 10.494,5.40258409 C10.6254,5.40258409 10.6938,5.40258409 10.8192,5.41550451 L10.8192,3.7173913 C10.8192,3.67863002 10.8504,3.65340443 10.8816,3.65340443 L11.8692,3.65340443 C11.919,3.65340443 11.9316,3.67247744 11.9316,3.70447088 L11.9316,9.58818704 C11.9316,9.76107465 11.9316,9.97887613 11.9628,10.2163659 C11.9628,10.2551272 11.9502,10.2674323 11.913,10.2871206 C11.388,10.5436833 10.8378,10.6587367 10.3128,10.6587367 C8.9562,10.664274 7.9872,9.80598852 7.9878,8.06234619 Z M10.8186,6.42206727 C10.731,6.38330599 10.6062,6.35808039 10.4562,6.35808039 C9.6684,6.35808039 9.1188,6.97949139 9.1188,8.011895 C9.1188,9.19134537 9.6816,9.6657096 10.3878,9.6657096 C10.5378,9.6657096 10.7004,9.64663659 10.8192,9.59495488 L10.8192,6.42206727 L10.8186,6.42206727 Z" id="Shape" fill="#FFD9F2" fill-rule="nonzero"></path>
                        </g>
                    </g>
                </g>
            </g>
        </g>
    </g>
</svg>