<svg width="15" height="15" viewBox="0 0 490 490" fill="#A1A1AA" xmlns="http://www.w3.org/2000/svg" >
<rect x="155.04" y="97.251" width="122.5" height="30.625"/>
<rect x="197.15" y="142.23" width="122.5" height="30.625"/>
<rect x="155.04" y="187.21" width="122.5" height="30.625"/>
<rect x="197.15" y="232.19" width="122.5" height="30.632"/>
<rect x="155.04" y="277.17" width="122.5" height="30.625"/>
<path d="m22.969 362.72h183.75v52.951h-69.863v30.625h216.29v-30.625h-69.863v-52.951h183.75c12.633 0 22.969-10.336 22.969-22.969v-273.07c0-12.633-10.336-22.969-22.969-22.969h-444.06c-12.633 0-22.969 10.336-22.969 22.969v273.07c0 12.632 10.336 22.968 22.969 22.968zm7.656-288.38h428.75v257.76h-428.75v-257.76z"/>
</svg>
