<svg width="12" height="12" viewBox="0 0 12 12" fill="#A1A1AA" xmlns="http://www.w3.org/2000/svg">
<path id="FreeIcon" d="M 6 0 A 6 6 0 0 0 0 6 A 6 6 0 0 0 6 12 A 6 6 0 0 0 12 6 A 6 6 0 0 0 6 0 z M 6 1.0996094 A 4.9000001 4.9000001 0 0 1 10.900391 6 A 4.9000001 4.9000001 0 0 1 10.736328 7.2558594 L 7.6621094 5.8886719 C 7.3537968 5.5279597 6.9973186 5.3204253 6.3808594 5.171875 L 6.3808594 3.3652344 C 6.8637827 3.4014936 7.4007337 3.5858433 7.8671875 3.9550781 L 8.0664062 2.8710938 C 7.593742 2.5854034 7.0276073 2.3839411 6.3808594 2.3300781 L 6.3808594 1.8457031 L 5.6191406 1.8457031 L 5.6191406 2.3300781 C 4.6706081 2.4024282 3.8359344 2.9640726 3.7792969 4.1582031 L 1.9082031 3.3261719 A 4.9000001 4.9000001 0 0 1 6 1.0996094 z M 5.6191406 3.3652344 L 5.6191406 4.9726562 C 4.6195351 4.5559593 5.0134576 3.4684296 5.6191406 3.3652344 z M 1.375 4.4003906 L 4.1621094 5.6425781 C 4.3547809 5.99806 4.9295017 6.4536528 5.6191406 6.5605469 L 5.6191406 8.6835938 C 4.946009 8.6060885 4.4300744 8.3501396 3.8398438 7.8847656 L 3.6425781 9.0292969 C 4.1788436 9.4059478 4.9009515 9.6668987 5.6191406 9.7207031 L 5.6191406 10.214844 L 6.3808594 10.214844 L 6.3789062 9.7207031 C 7.6367997 9.5990672 8.246801 8.8150732 8.2675781 7.4707031 L 10.287109 8.3710938 A 4.9000001 4.9000001 0 0 1 6 10.900391 A 4.9000001 4.9000001 0 0 1 1.0996094 6 A 4.9000001 4.9000001 0 0 1 1.375 4.4003906 z M 6.3808594 6.7597656 C 7.2824256 7.1833219 7.210553 8.4892535 6.3808594 8.6621094 L 6.3808594 6.7597656 z " />
</svg>
