<svg height="15" viewBox="0 0 48 48" width="15" xmlns="http://www.w3.org/2000/svg"><path d="m0 0h48v48h-48z" fill="#e74969"/><path d="m37.206 37.132h3.703v3.703h-3.703zm-5.835-1.381c0-4.227-9.669-.904-9.669-7.844 0-2.761 2.338-5.132 6.186-5.132 4.067 0 6.211 2.493 6.284 5.743h-2.898c-.024-1.711-1.169-3.079-3.385-3.079-2.021 0-3.263.855-3.263 2.395 0 3.812 9.742.855 9.742 7.795 0 3.152-2.728 5.205-6.868 5.205-4.603 0-6.381-2.932-6.478-5.767h2.923c.122 1.858 1.364 3.104 3.702 3.104 2.36 0 3.724-.856 3.724-2.42" fill="#fff"/></svg>