<svg width="16" height="16" viewBox="0 0 16 16" fill="#A1A1AA" xmlns="http://www.w3.org/2000/svg">
  <path id="body" d="M 15.38,11.72 C 14.966355,12.966371 13.437766,16 11.75,16 10.756703,16 9.8483728,15.417488 8.9304069,15.421445 7.6352474,15.427028 7.4641324,16 6.25,16 4.9583759,16 4.1704147,14.929728 3.7653443,14.314432 2.8830184,12.974194 1.8640848,11.118843 1.8640848,8.5217506 c 0,-2.4404149 1.3261752,-4.8700408 3.880034,-4.8700408 1.103388,0 2.3580181,0.5794915 3.1417454,0.5794914 C 9.8791611,4.2312011 12.580403,2.3079035 14.92,5.17 13.596209,6.3505754 13.117608,7.115628 13.185418,8.3897395 13.253228,9.663851 13.781996,11.085643 15.38,11.72 Z" />
  <path id="leaf"  d="M 8.4929204,3.8429566 C 8.4929204,0.68489485 11.207032,-0.07 11.73,-0.07 c 0,3.2839894 -2.7040549,3.9129566 -3.2370796,3.9129566 z" />
</svg>
