<?xml version="1.0" encoding="iso-8859-1"?>
<!-- Generator: Adobe Illustrator 18.0.0, SVG Export Plug-In . SVG Version: 6.00 Build 0)  -->
<!DOCTYPE svg PUBLIC "-//W3C//DTD SVG 1.1//EN" "http://www.w3.org/Graphics/SVG/1.1/DTD/svg11.dtd">
<svg version="1.1" id="Capa_1" xmlns="http://www.w3.org/2000/svg" xmlns:xlink="http://www.w3.org/1999/xlink" x="0px" y="0px"
	 viewBox="0 0 52 52" style="enable-background:new 0 0 52 52;" xml:space="preserve">
<g>
	<path style="fill:#393687;" d="M40.824,52H11.176C5.003,52,0,46.997,0,40.824V11.176C0,5.003,5.003,0,11.176,0h29.649
		C46.997,0,52,5.003,52,11.176v29.649C52,46.997,46.997,52,40.824,52z"/>
	<g>
		<path style="fill:#89D3FF;" d="M12.16,39H9.28V11h9.64c2.613,0,4.553,0.813,5.82,2.44c1.266,1.626,1.9,3.76,1.9,6.399
			c0,0.934-0.027,1.74-0.08,2.42c-0.054,0.681-0.22,1.534-0.5,2.561c-0.28,1.026-0.66,1.866-1.14,2.52
			c-0.48,0.654-1.213,1.227-2.2,1.72c-0.987,0.494-2.16,0.74-3.52,0.74h-7.04V39z M12.16,27h6.68c0.96,0,1.773-0.187,2.44-0.56
			c0.666-0.374,1.153-0.773,1.46-1.2c0.306-0.427,0.546-1.04,0.72-1.84c0.173-0.801,0.267-1.4,0.28-1.801
			c0.013-0.399,0.02-0.973,0.02-1.72c0-4.053-1.694-6.08-5.08-6.08h-6.52V27z"/>
		<path style="fill:#89D3FF;" d="M29.48,33.92l2.8-0.12c0.106,0.987,0.6,1.754,1.48,2.3c0.88,0.547,1.893,0.82,3.04,0.82
			s2.14-0.26,2.98-0.78c0.84-0.52,1.26-1.266,1.26-2.239s-0.36-1.747-1.08-2.32c-0.72-0.573-1.6-1.026-2.64-1.36
			c-1.04-0.333-2.086-0.686-3.14-1.06c-1.054-0.373-1.98-0.96-2.78-1.76c-0.987-0.934-1.48-2.073-1.48-3.42s0.54-2.601,1.62-3.761
			s2.833-1.739,5.26-1.739c0.854,0,1.653,0.1,2.4,0.3c0.746,0.2,1.28,0.394,1.6,0.58l0.48,0.279l-0.92,2.521
			c-0.854-0.666-1.974-1-3.36-1c-1.387,0-2.42,0.26-3.1,0.78c-0.68,0.52-1.02,1.18-1.02,1.979c0,0.88,0.426,1.574,1.28,2.08
			c0.853,0.507,1.813,0.934,2.88,1.28c1.066,0.347,2.126,0.733,3.18,1.16c1.053,0.427,1.946,1.094,2.68,2s1.1,2.106,1.1,3.6
			c0,1.494-0.6,2.794-1.8,3.9C41,39.046,39.246,39.6,36.94,39.6c-2.307,0-4.114-0.547-5.42-1.64
			C30.213,36.867,29.533,35.52,29.48,33.92z"/>
	</g>
</g>
<g>
</g>
<g>
</g>
<g>
</g>
<g>
</g>
<g>
</g>
<g>
</g>
<g>
</g>
<g>
</g>
<g>
</g>
<g>
</g>
<g>
</g>
<g>
</g>
<g>
</g>
<g>
</g>
<g>
</g>
</svg>
