<?xml version="1.0" encoding="iso-8859-1"?>
<!-- Generator: Adobe Illustrator 19.0.0, SVG Export Plug-In . SVG Version: 6.00 Build 0)  -->
<svg version="1.1" id="Layer_1" xmlns="http://www.w3.org/2000/svg" xmlns:xlink="http://www.w3.org/1999/xlink" x="0px" y="0px"
	 viewBox="0 0 508 508" style="enable-background:new 0 0 508 508;" xml:space="preserve">
<path style="fill:#F4EFEF;" d="M166,506h172.4c26,0,47.2-24,47.2-50.4v-400c0-26.4-21.2-46-47.6-46H166c-26,0-47.6,17.2-47.6,43.6
	v401.2C118.4,480.8,140,506,166,506z"/>
<path style="fill:#CDEEF9;" d="M366.4,78H140.8l-2.4-1.2V434h228V78z"/>
<path d="M167.2,508c-29.6,0-54.8-24.4-54.8-53.2V53.6c0-28.8,25.2-53.2,54.8-53.6l175.2,0.4c29.6,0,52.8,23.6,52.8,53.2l0.4,401.2
	l0,0c0,29.6-24,53.2-53.2,53.2H167.2z M167.2,8c-25.2,0-46.8,20.8-46.8,45.6v401.2c0,24.4,21.6,45.2,46.8,45.2h174.4
	c24.8,0,45.2-20.4,45.2-45.2l-0.4-401.2c0-25.2-19.6-45.2-44.8-45.2L167.2,8z"/>
<path d="M368.4,440h-232c-2.4,0-4-1.6-4-4V76c0-2.4,1.6-4,4-4h182c2.4,0,4,1.6,4,4s-1.6,4-4,4h-178v352h224V80h-10c-2.4,0-4-1.6-4-4
	s1.6-4,4-4h14c2.4,0,4,1.6,4,4v360C372.4,438.4,370.8,440,368.4,440z"/>
<path d="M282.4,48h-56c-2.4,0-4-1.6-4-4s1.6-4,4-4h56c2.4,0,4,1.6,4,4S284.8,48,282.4,48z"/>
<path d="M207.6,44.4c-1.2,0-2-0.4-2.8-1.2c-0.8-0.8-1.2-2-1.2-2.8c0-1.2,0.4-2,1.2-2.8c1.6-1.6,4-1.6,5.6,0c0.8,0.8,1.2,2,1.2,2.8
	s-0.4,2-1.2,2.8C209.6,44,208.4,44.4,207.6,44.4z"/>
<path d="M235.6,172c-1.2,0-2-0.4-2.8-1.2l-92-92c-1.6-1.6-1.6-4,0-5.6s4-1.6,5.6,0l92,92c1.6,1.6,1.6,4,0,5.6
	C237.6,171.6,236.4,172,235.6,172z"/>
<path d="M295.6,232c-1.2,0-2-0.4-2.8-1.2l-40-40c-1.6-1.6-1.6-4,0-5.6s4-1.6,5.6,0l40,40c1.6,1.6,1.6,4,0,5.6
	C297.6,231.6,296.4,232,295.6,232z"/>
<path d="M331.6,312c-1.2,0-2-0.4-2.8-1.2L212.4,194.4c-1.6-1.6-1.6-4,0-5.6s4-1.6,5.6,0l116.4,116.4c1.6,1.6,1.6,4,0,5.6
	C334,311.6,332.8,312,331.6,312z"/>
<path d="M367.6,348c-1.2,0-2-0.4-2.8-1.2l-19.2-19.2c-1.6-1.6-1.6-4,0-5.6s4-1.6,5.6,0l19.2,19.2c1.6,1.6,1.6,4,0,5.6
	C369.6,347.6,368.4,348,367.6,348z"/>
<path d="M254,492.4c-4.4,0-8.8-1.2-12.4-3.6c-5.6-3.2-9.2-8.8-10.8-14.8c-1.6-6.4-0.4-12.8,2.8-18c3.2-5.6,8.8-9.2,14.8-10.8
	c3.6-0.8,7.2-0.8,10.4,0c2,0.4,3.6,2.4,3.2,4.8c-0.4,2-2.4,3.6-4.8,3.2c-2.4-0.4-4.8-0.4-7.2,0c-4,0.8-7.6,3.6-10,7.2s-2.8,8-2,12
	s3.6,7.6,7.2,10c3.6,2.4,8,2.8,12,2s7.6-3.6,10-7.2s2.8-8,2-12c-0.4-2,0.8-4.4,2.8-4.8s4.4,0.8,4.8,2.8c1.6,6.4,0.4,12.8-2.8,18
	c-3.2,5.6-8.8,9.2-14.8,10.8C257.6,492,255.6,492.4,254,492.4z"/>
<g>
</g>
<g>
</g>
<g>
</g>
<g>
</g>
<g>
</g>
<g>
</g>
<g>
</g>
<g>
</g>
<g>
</g>
<g>
</g>
<g>
</g>
<g>
</g>
<g>
</g>
<g>
</g>
<g>
</g>
</svg>
