<svg width="15" height="15" viewBox="0 0 201.53 201.53" fill="#A1A1AA" xmlns="http://www.w3.org/2000/svg">
<path d="m191.12 11.403h-180.72c-5.734 0-10.4 4.665-10.4 10.402v59.108c0 5.738 4.666 10.404 10.4 10.404h180.73c5.734 0 10.4-4.666 10.4-10.403v-59.109c-1e-3 -5.737-4.666-10.402-10.401-10.402zm3.452 69.511h-1e-3c0 1.903-1.547 3.454-3.451 3.454h-180.72c-1.904 0-3.451-1.551-3.451-3.454v-59.109c0-1.903 1.547-3.454 3.451-3.454h180.73c1.903 0 3.451 1.551 3.451 3.454v59.109z"/>
<path d="m63.924 35.968c-1.751-0.801-3.807-0.027-4.605 1.714l-10.498 22.924-3.19-6.696 6.109-13.338c0.797-1.744 0.034-3.807-1.714-4.605-1.751-0.801-3.811-0.027-4.605 1.714l-3.687 8.051-3.859-8.099c-0.825-1.734-2.888-2.477-4.628-1.642-1.734 0.825-2.47 2.898-1.642 4.628l6.358 13.347-3.04 6.638-10.947-22.97c-0.821-1.734-2.888-2.477-4.628-1.642-1.734 0.825-2.47 2.898-1.642 4.628l14.143 29.686c0.573 1.211 1.795 1.982 3.135 1.982h0.027c1.347-0.01 2.569-0.801 3.132-2.029l3.716-8.113 3.888 8.161c0.573 1.211 1.795 1.982 3.135 1.982h0.027c1.347-0.01 2.569-0.801 3.132-2.029l13.596-29.686c0.797-1.744 0.034-3.808-1.713-4.606z"/>
<path d="m122.99 35.968c-1.754-0.801-3.807-0.027-4.605 1.714l-10.498 22.924-3.19-6.696 6.109-13.338c0.797-1.744 0.034-3.807-1.714-4.605-1.751-0.801-3.807-0.027-4.604 1.714l-3.687 8.051-3.859-8.099c-0.821-1.734-2.891-2.477-4.628-1.642-1.734 0.825-2.47 2.898-1.642 4.628l6.358 13.347-3.04 6.638-10.947-22.97c-0.821-1.734-2.891-2.477-4.628-1.642-1.734 0.825-2.47 2.898-1.642 4.628l14.143 29.686c0.573 1.211 1.795 1.982 3.135 1.982h0.027c1.347-0.01 2.569-0.801 3.132-2.029l3.716-8.113 3.888 8.161c0.573 1.211 1.795 1.982 3.135 1.982h0.027c1.347-0.01 2.569-0.801 3.132-2.029l13.596-29.686c0.797-1.744 0.034-3.808-1.714-4.606z"/>
<path d="m182.06 35.968c-1.751-0.801-3.807-0.027-4.605 1.714l-10.498 22.924-3.19-6.696 6.109-13.338c0.797-1.744 0.034-3.807-1.714-4.605-1.751-0.801-3.807-0.027-4.605 1.714l-3.687 8.051-3.859-8.099c-0.821-1.734-2.888-2.477-4.628-1.642-1.734 0.825-2.47 2.898-1.642 4.628l6.358 13.347-3.04 6.638-10.946-22.971c-0.821-1.734-2.888-2.477-4.628-1.642-1.734 0.825-2.47 2.898-1.642 4.628l14.143 29.686c0.573 1.211 1.795 1.982 3.135 1.982h0.027c1.347-0.01 2.569-0.801 3.132-2.029l3.716-8.113 3.888 8.161c0.573 1.211 1.795 1.982 3.135 1.982h0.027c1.347-0.01 2.569-0.801 3.132-2.029l13.596-29.686c0.797-1.743 0.033-3.807-1.714-4.605z"/>
<path d="m183.46 140.32-53.161-43.108c-1.065-0.865-2.545-1.018-3.766-0.397-1.222 0.621-1.965 1.907-1.893 3.278l3.627 68.345c0.078 1.455 1.055 2.708 2.45 3.139 1.384 0.421 2.904-0.061 3.787-1.222 0.065-0.081 5.398-7.075 11.231-12.901l15.68 30.776c0.417 0.821 1.143 1.442 2.022 1.727 0.35 0.112 0.713 0.17 1.072 0.17 0.543 0 1.086-0.129 1.578-0.38l12.385-6.311c0.821-0.417 1.442-1.143 1.727-2.022 0.285-0.876 0.21-1.829-0.21-2.65l-15.68-30.772c8.14-1.293 16.932-1.5 17.037-1.5 1.455-0.034 2.742-0.97 3.213-2.348 0.471-1.381 0.034-2.908-1.099-3.824zm-25.124 1.739c-1.045 0.238-1.92 0.943-2.375 1.914-0.451 0.97-0.434 2.097 0.054 3.05l16.206 31.8-6.192 3.156-16.206-31.804c-0.485-0.953-1.384-1.632-2.436-1.832-0.217-0.044-0.438-0.065-0.658-0.065-0.831 0-1.646 0.298-2.283 0.859-3.444 3.003-6.926 6.756-9.715 9.972l-2.734-51.576 40.117 32.53c-4.239 0.367-9.322 0.978-13.778 1.996z"/></svg>
