<?xml version="1.0" encoding="iso-8859-1"?>
<!-- Generator: Adobe Illustrator 19.0.0, SVG Export Plug-In . SVG Version: 6.00 Build 0)  -->
<svg width="15" height="15" version="1.1" id="Layer_1" xmlns="http://www.w3.org/2000/svg" xmlns:xlink="http://www.w3.org/1999/xlink" x="0px" y="0px"
	 viewBox="0 0 201.526 201.526" style="enable-background:new 0 0 201.526 201.526;" xml:space="preserve">
<g>
	<g>
		<g>
			<path d="M191.125,11.403H10.4C4.666,11.403,0,16.068,0,21.805v59.108c0,5.738,4.666,10.404,10.4,10.404h180.726
				c5.734,0,10.4-4.666,10.4-10.403V21.805C201.525,16.068,196.86,11.403,191.125,11.403z M194.577,80.914h-0.001
				c0,1.903-1.547,3.454-3.451,3.454H10.4c-1.904,0-3.451-1.551-3.451-3.454V21.805c0-1.903,1.547-3.454,3.451-3.454h180.726
				c1.903,0,3.451,1.551,3.451,3.454V80.914z"/>
			<path d="M63.924,35.968c-1.751-0.801-3.807-0.027-4.605,1.714L48.821,60.606l-3.19-6.696l6.109-13.338
				c0.797-1.744,0.034-3.807-1.714-4.605c-1.751-0.801-3.811-0.027-4.605,1.714l-3.687,8.051l-3.859-8.099
				c-0.825-1.734-2.888-2.477-4.628-1.642c-1.734,0.825-2.47,2.898-1.642,4.628l6.358,13.347l-3.04,6.638l-10.947-22.97
				c-0.821-1.734-2.888-2.477-4.628-1.642c-1.734,0.825-2.47,2.898-1.642,4.628l14.143,29.686c0.573,1.211,1.795,1.982,3.135,1.982
				c0.01,0,0.017,0,0.027,0c1.347-0.01,2.569-0.801,3.132-2.029l3.716-8.113l3.888,8.161c0.573,1.211,1.795,1.982,3.135,1.982
				c0.01,0,0.017,0,0.027,0c1.347-0.01,2.569-0.801,3.132-2.029l13.596-29.686C66.434,38.83,65.671,36.766,63.924,35.968z"/>
			<path d="M122.991,35.968c-1.754-0.801-3.807-0.027-4.605,1.714l-10.498,22.924l-3.19-6.696l6.109-13.338
				c0.797-1.744,0.034-3.807-1.714-4.605c-1.751-0.801-3.807-0.027-4.604,1.714l-3.687,8.051l-3.859-8.099
				c-0.821-1.734-2.891-2.477-4.628-1.642c-1.734,0.825-2.47,2.898-1.642,4.628l6.358,13.347l-3.04,6.638l-10.947-22.97
				c-0.821-1.734-2.891-2.477-4.628-1.642c-1.734,0.825-2.47,2.898-1.642,4.628l14.143,29.686c0.573,1.211,1.795,1.982,3.135,1.982
				c0.01,0,0.017,0,0.027,0c1.347-0.01,2.569-0.801,3.132-2.029l3.716-8.113l3.888,8.161c0.573,1.211,1.795,1.982,3.135,1.982
				c0.01,0,0.017,0,0.027,0c1.347-0.01,2.569-0.801,3.132-2.029l13.596-29.686C125.502,38.83,124.739,36.766,122.991,35.968z"/>
			<path d="M182.059,35.968c-1.751-0.801-3.807-0.027-4.605,1.714l-10.498,22.924l-3.19-6.696l6.109-13.338
				c0.797-1.744,0.034-3.807-1.714-4.605c-1.751-0.801-3.807-0.027-4.605,1.714l-3.687,8.051l-3.859-8.099
				c-0.821-1.734-2.888-2.477-4.628-1.642c-1.734,0.825-2.47,2.898-1.642,4.628l6.358,13.347l-3.04,6.638l-10.946-22.971
				c-0.821-1.734-2.888-2.477-4.628-1.642c-1.734,0.825-2.47,2.898-1.642,4.628l14.143,29.686c0.573,1.211,1.795,1.982,3.135,1.982
				c0.01,0,0.017,0,0.027,0c1.347-0.01,2.569-0.801,3.132-2.029l3.716-8.113l3.888,8.161c0.573,1.211,1.795,1.982,3.135,1.982
				c0.01,0,0.017,0,0.027,0c1.347-0.01,2.569-0.801,3.132-2.029l13.596-29.686C184.57,38.83,183.806,36.766,182.059,35.968z"/>
			<path d="M183.461,140.316L130.3,97.208c-1.065-0.865-2.545-1.018-3.766-0.397c-1.222,0.621-1.965,1.907-1.893,3.278l3.627,68.345
				c0.078,1.455,1.055,2.708,2.45,3.139c1.384,0.421,2.904-0.061,3.787-1.222c0.065-0.081,5.398-7.075,11.231-12.901l15.68,30.776
				c0.417,0.821,1.143,1.442,2.022,1.727c0.35,0.112,0.713,0.17,1.072,0.17c0.543,0,1.086-0.129,1.578-0.38l12.385-6.311
				c0.821-0.417,1.442-1.143,1.727-2.022c0.285-0.876,0.21-1.829-0.21-2.65l-15.68-30.772c8.14-1.293,16.932-1.5,17.037-1.5
				c1.455-0.034,2.742-0.97,3.213-2.348C185.031,142.759,184.594,141.232,183.461,140.316z M158.337,142.055
				c-1.045,0.238-1.92,0.943-2.375,1.914c-0.451,0.97-0.434,2.097,0.054,3.05l16.206,31.8l-6.192,3.156l-16.206-31.804
				c-0.485-0.953-1.384-1.632-2.436-1.832c-0.217-0.044-0.438-0.065-0.658-0.065c-0.831,0-1.646,0.298-2.283,0.859
				c-3.444,3.003-6.926,6.756-9.715,9.972l-2.734-51.576l40.117,32.53C167.876,140.426,162.793,141.037,158.337,142.055z"/>
		</g>
	</g>
</g>
<g>
</g>
<g>
</g>
<g>
</g>
<g>
</g>
<g>
</g>
<g>
</g>
<g>
</g>
<g>
</g>
<g>
</g>
<g>
</g>
<g>
</g>
<g>
</g>
<g>
</g>
<g>
</g>
<g>
</g>
</svg>
