<?xml version="1.0" encoding="UTF-8"?>
<svg width="29px" height="29px" viewBox="0 0 29 29" version="1.1" xmlns="http://www.w3.org/2000/svg" xmlns:xlink="http://www.w3.org/1999/xlink">
    <!-- Generator: sketchtool 61.1 (101010) - https://sketch.com -->
    <title>9659587E-EF92-4A00-A660-D91F849A257C</title>
    <desc>Created with sketchtool.</desc>
    <g id="UI" stroke="none" stroke-width="1" fill="none" fill-rule="evenodd">
        <g id="awesome-design-uikits-v1" transform="translate(-80.000000, -28.000000)" fill-rule="nonzero">
            <g id="Group-3" transform="translate(80.000000, 28.000000)">
                <g id="adp-logo">
                    <path d="M9.84079466,-3.97579883e-16 L19.1592053,3.97579883e-16 C22.581064,-2.31005361e-16 23.8219127,0.356286537 25.0728931,1.02531817 C26.3238735,1.69434981 27.3056502,2.67612654 27.9746818,3.92710693 C28.6437135,5.17808732 29,6.41893597 29,9.84079466 L29,19.1592053 C29,22.581064 28.6437135,23.8219127 27.9746818,25.0728931 C27.3056502,26.3238735 26.3238735,27.3056502 25.0728931,27.9746818 C23.8219127,28.6437135 22.581064,29 19.1592053,29 L9.84079466,29 C6.41893597,29 5.17808732,28.6437135 3.92710693,27.9746818 C2.67612654,27.3056502 1.69434981,26.3238735 1.02531817,25.0728931 C0.356286537,23.8219127 1.54003574e-16,22.581064 -2.65053255e-16,19.1592053 L2.65053255e-16,9.84079466 C-1.54003574e-16,6.41893597 0.356286537,5.17808732 1.02531817,3.92710693 C1.69434981,2.67612654 2.67612654,1.69434981 3.92710693,1.02531817 C5.17808732,0.356286537 6.41893597,2.31005361e-16 9.84079466,-3.97579883e-16 Z" id="Rectangle-Copy" fill="#C22FC7"></path>
                    <path d="M13.705,-9.9475983e-14 L19.0340827,6.57907027 C21.1875281,9.23835394 21.6915329,10.4268928 21.9588651,11.8201224 C22.2261973,13.2133521 22.0810656,14.594188 21.5299065,15.9013907 C20.9787474,17.2085934 20.2386453,18.2663714 17.5793616,20.4198169 L10.3375964,26.2840827 C8.56515091,27.7193808 7.44606724,28.4219333 6.48426465,28.8100478 C5.35883486,28.6392716 4.64463751,28.3584214 3.92710693,27.9746818 C2.67612654,27.3056502 1.69434981,26.3238735 1.02531817,25.0728931 C0.356286537,23.8219127 -1.56430452e-13,22.581064 -1.56849508e-13,19.1592053 L-1.56319402e-13,9.84079466 C-1.56738459e-13,6.41893597 0.356286537,5.17808732 1.02531817,3.92710693 C1.69434981,2.67612654 2.67612654,1.69434981 3.92710693,1.02531817 C5.17808732,0.356286537 6.41893597,1.44418601e-14 9.84079466,1.38132748e-14 L13.705,-9.9475983e-14 Z" id="Combined-Shape" fill="#A318A8"></path>
                    <path d="M3.34262682,1.37350581 L6.60782212,2.82824881 C9.73384559,4.22004412 10.7225024,5.05022669 11.5932102,6.17023706 C12.463918,7.29024744 12.9614911,8.58646969 13.0638623,10.0014168 C13.1662336,11.416364 12.9870189,12.6948504 11.5952236,15.8208739 L7.80508453,24.3336656 C6.78588896,26.6228163 6.06785615,27.7658121 5.31663652,28.5556519 C4.79354791,28.401099 4.36093667,28.2066965 3.92710693,27.9746818 C2.67612654,27.3056502 1.69434981,26.3238735 1.02531817,25.0728931 C0.356286537,23.8219127 4.27865677e-14,22.581064 4.23675109e-14,19.1592053 L4.28976174e-14,9.84079466 C4.24785606e-14,6.41893597 0.356286537,5.17808732 1.02531817,3.92710693 C1.58637257,2.87802642 2.36736844,2.01826639 3.34262682,1.37350581 Z" id="Combined-Shape" fill="#850289"></path>
                </g>
            </g>
        </g>
    </g>
</svg>