<?xml version="1.0" encoding="UTF-8"?>
<svg width="39px" height="39px" viewBox="0 0 39 39" version="1.1" xmlns="http://www.w3.org/2000/svg" xmlns:xlink="http://www.w3.org/1999/xlink">
    <!-- Generator: sketchtool 61.1 (101010) - https://sketch.com -->
    <title>9CBD9806-432E-4049-A8DE-4898D83FBA66</title>
    <desc>Created with sketchtool.</desc>
    <g id="UI" stroke="none" stroke-width="1" fill="none" fill-rule="evenodd">
        <g id="awesome-design-uikits-v1" transform="translate(-684.000000, -83.000000)">
            <g id="plugin-icon-selected" transform="translate(684.000000, 83.000000)">
                <circle id="Oval" fill="#DFE6F2" fill-rule="nonzero" cx="19.5" cy="19.5" r="19.5"></circle>
                <g id="Group-7" transform="translate(9.000000, 9.000000)">
                    <path d="M7.6916556,-3.10752092e-16 L13.3083444,3.10752092e-16 C15.9829006,-1.80555915e-16 16.9527593,0.278476833 17.9305371,0.801398111 C18.9083149,1.32431939 19.6756806,2.09168511 20.1986019,3.06946289 C20.7215232,4.04724067 21,5.01709938 21,7.6916556 L21,13.3083444 C21,15.9829006 20.7215232,16.9527593 20.1986019,17.9305371 C19.6756806,18.9083149 18.9083149,19.6756806 17.9305371,20.1986019 C16.9527593,20.7215232 15.9829006,21 13.3083444,21 L7.6916556,21 C5.01709938,21 4.04724067,20.7215232 3.06946289,20.1986019 C2.09168511,19.6756806 1.32431939,18.9083149 0.801398111,17.9305371 C0.278476833,16.9527593 1.2037061e-16,15.9829006 -2.07168062e-16,13.3083444 L2.07168062e-16,7.6916556 C-1.2037061e-16,5.01709938 0.278476833,4.04724067 0.801398111,3.06946289 C1.32431939,2.09168511 2.09168511,1.32431939 3.06946289,0.801398111 C4.04724067,0.278476833 5.01709938,1.80555915e-16 7.6916556,-3.10752092e-16 Z" id="Rectangle" stroke="#BCC6D6" stroke-width="2"></path>
                    <path d="M4.15374839,13 L16.8462516,13 C17.2474351,13 17.3929139,13.0417715 17.5395805,13.1202097 C17.6862472,13.1986479 17.8013521,13.3137528 17.8797903,13.4604195 C17.9582285,13.6070861 18,13.7525649 18,14.1537484 L18,15.6840486 C18,16.2780468 17.9071744,16.6509198 17.7328673,16.9768457 C17.5585602,17.3027716 17.3027716,17.5585602 16.9768457,17.7328673 C16.6509198,17.9071744 16.2780468,18 15.6840486,18 L5.31595144,18 C4.72195321,18 4.34908022,17.9071744 4.0231543,17.7328673 C3.69722837,17.5585602 3.4414398,17.3027716 3.2671327,16.9768457 C3.09282561,16.6509198 3,16.2780468 3,15.6840486 L3,14.1537484 C3,13.7525649 3.04177153,13.6070861 3.12020972,13.4604195 C3.19864792,13.3137528 3.31375278,13.1986479 3.46041945,13.1202097 C3.60708612,13.0417715 3.75256494,13 4.15374839,13 Z" id="Rectangle" fill="#A4AEBD"></path>
                    <path d="M12.1537484,3 L15.4361148,3 C16.3276335,3 16.6509198,3.09282561 16.9768457,3.2671327 C17.3027716,3.4414398 17.5585602,3.69722837 17.7328673,4.0231543 C17.9071744,4.34908022 18,4.67236646 18,5.5638852 L18,9.84625166 C18,10.2474351 17.9582285,10.3929139 17.8797903,10.5395806 C17.8013521,10.6862472 17.6862472,10.8013521 17.5395806,10.8797903 C17.3929139,10.9582285 17.2474351,11 16.8462517,11 L12.1537483,11 C11.7525649,11 11.6070861,10.9582285 11.4604194,10.8797903 C11.3137528,10.8013521 11.1986479,10.6862472 11.1202097,10.5395806 C11.0417715,10.3929139 11,10.2474351 11,9.84625166 L11,4.15374839 C11,3.75256494 11.0417715,3.60708612 11.1202097,3.46041945 C11.1986479,3.31375278 11.3137528,3.19864792 11.4604195,3.12020972 C11.6070861,3.04177153 11.7525649,3 12.1537484,3 Z" id="Rectangle" fill="#A4AEBD"></path>
                    <path d="M4.15374839,3 L7.4361148,3 C8.32763354,3 8.65091978,3.09282561 8.9768457,3.2671327 C9.30277163,3.4414398 9.5585602,3.69722837 9.7328673,4.0231543 C9.90717439,4.34908022 10,4.67236646 10,5.5638852 L10,9.84625166 C10,10.2474351 9.95822847,10.3929139 9.87979028,10.5395806 C9.80135209,10.6862472 9.68624723,10.8013521 9.53958057,10.8797903 C9.3929139,10.9582285 9.24743509,11 8.84625166,11 L4.15374834,11 C3.75256491,11 3.6070861,10.9582285 3.46041943,10.8797903 C3.31375277,10.8013521 3.19864791,10.6862472 3.12020972,10.5395806 C3.04177153,10.3929139 3,10.2474351 3,9.84625166 L3,4.15374839 C3,3.75256494 3.04177153,3.60708612 3.12020972,3.46041945 C3.19864792,3.31375278 3.31375278,3.19864792 3.46041945,3.12020972 C3.60708612,3.04177153 3.75256494,3 4.15374839,3 Z" id="Rectangle" fill="#BCC6D6" transform="translate(6.500000, 7.000000) scale(-1, 1) translate(-6.500000, -7.000000) "></path>
                </g>
            </g>
        </g>
    </g>
</svg>