<?xml version="1.0" encoding="UTF-8"?>
<svg width="60px" height="60px" viewBox="0 0 60 60" version="1.1" xmlns="http://www.w3.org/2000/svg" xmlns:xlink="http://www.w3.org/1999/xlink">
    <!-- Generator: sketchtool 52.2 (67145) - http://www.bohemiancoding.com/sketch -->
    <title>059F6B97-0B3D-42CF-96AF-2426D55D5E0B</title>
    <desc>Created with sketchtool.</desc>
    <g id="UI" stroke="none" stroke-width="1" fill="none" fill-rule="evenodd">
        <g id="awesome-design-plugins-v3" transform="translate(-880.000000, -144.000000)" fill-rule="nonzero">
            <g id="header-title" transform="translate(705.000000, 144.000000)">
                <g id="adp-logo" transform="translate(175.000000, 0.000000)">
                    <path d="M20.3602648,2.73013461e-15 L39.6397352,4.37529275e-15 C46.7194428,3.07477155e-15 49.2867159,0.737144559 51.8749512,2.12134794 C54.4631865,3.50555132 56.4944487,5.53681353 57.8786521,8.12504882 C59.2628554,10.7132841 60,13.2805572 60,20.3602648 L60,39.6397352 C60,46.7194428 59.2628554,49.2867159 57.8786521,51.8749512 C56.4944487,54.4631865 54.4631865,56.4944487 51.8749512,57.8786521 C49.2867159,59.2628554 46.7194428,60 39.6397352,60 L20.3602648,60 C13.2805572,60 10.7132841,59.2628554 8.12504882,57.8786521 C5.53681353,56.4944487 3.50555132,54.4631865 2.12134794,51.8749512 C0.737144559,49.2867159 3.87134176e-15,46.7194428 3.00432763e-15,39.6397352 L4.10109972e-15,20.3602648 C3.23408559e-15,13.2805572 0.737144559,10.7132841 2.12134794,8.12504882 C3.50555132,5.53681353 5.53681353,3.50555132 8.12504882,2.12134794 C10.7132841,0.737144559 13.2805572,4.03065581e-15 20.3602648,2.73013461e-15 Z" id="Rectangle-Copy" fill="#2FC763"></path>
                    <path d="M28.3581861,1.59872116e-14 L39.3808608,13.6118695 C43.8362651,19.1138357 44.8790335,21.5728817 45.4321347,24.4554257 C45.9852359,27.3379698 45.6849634,30.1948717 44.5446342,32.899429 C43.404305,35.6039863 41.8730592,37.7924926 36.371093,42.2478969 L21.3881305,54.3808608 C17.7229859,57.3488363 15.408162,58.8024267 13.41895,59.6056916 C11.0895749,59.2545816 9.61076545,58.673222 8.12504882,57.8786521 C5.53681353,56.4944487 3.50555132,54.4631865 2.12134794,51.8749512 C0.737144559,49.2867159 -1.5244806e-13,46.7194428 -1.53315074e-13,39.6397352 L-1.52218302e-13,20.3602648 C-1.53085316e-13,13.2805572 0.737144559,10.7132841 2.12134794,8.12504882 C3.50555132,5.53681353 5.53681353,3.50555132 8.12504882,2.12134794 C10.7132841,0.737144559 13.2805572,1.82415105e-14 20.3602648,1.69409893e-14 L28.3581861,1.76234689e-14 Z" id="Combined-Shape" fill="#18A849"></path>
                    <path d="M10.9991492,59.0814879 C9.91760468,58.7608583 9.02258714,58.3586608 8.12504882,57.8786521 C5.53681353,56.4944487 3.50555132,54.4631865 2.12134794,51.8749512 C0.737144559,49.2867159 4.65039059e-14,46.7194428 4.56368918e-14,39.6397352 L4.67336639e-14,20.3602648 C4.58666497e-14,13.2805572 0.737144559,10.7132841 2.12134794,8.12504882 C3.28179714,5.95519748 4.89702096,4.17680548 6.91393893,2.84295328 L13.6713561,5.85154926 C20.1389909,8.73112577 22.1844878,10.4487449 23.9859522,12.7660077 C25.7874165,15.0832706 26.8168781,17.7651097 27.0286807,20.6925865 C27.2404833,23.6200634 26.8696943,26.2652077 23.9901178,32.7328425 L16.1484507,50.345515 C14.0394137,55.0824898 12.5536827,57.4473075 10.9991492,59.0814879 Z" id="Combined-Shape" fill="#0B7E32"></path>
                </g>
            </g>
        </g>
    </g>
</svg>