<?xml version="1.0" encoding="UTF-8"?>
<svg width="39px" height="39px" viewBox="0 0 39 39" version="1.1" xmlns="http://www.w3.org/2000/svg" xmlns:xlink="http://www.w3.org/1999/xlink">
    <!-- Generator: sketchtool 52.2 (67145) - http://www.bohemiancoding.com/sketch -->
    <title>40705D8A-BCC7-48F7-814E-FDB8063DBB9F</title>
    <desc>Created with sketchtool.</desc>
    <g id="UI" stroke="none" stroke-width="1" fill="none" fill-rule="evenodd">
        <g id="awesome-design-plugins-v3" transform="translate(-710.000000, -23.000000)" fill-rule="nonzero">
            <g id="tab-description" transform="translate(710.000000, 23.000000)">
                <g id="plugin-icon-selected">
                    <circle id="Oval" fill="#D2FAD7" cx="19.5" cy="19.5" r="19.5"></circle>
                    <g id="plugin-icon" transform="translate(19.474874, 20.767767) rotate(-315.000000) translate(-19.474874, -20.767767) translate(10.474874, 8.267767)">
                        <path d="M6.24,15.2075472 L6.24,21.8876732 C6.24,23.3778 7.44798643,24.5857864 8.93811321,24.5857864 L8.93811321,24.5857864 C10.42824,24.5857864 11.6362264,23.3778 11.6362264,21.8876732 L11.6362264,20.1967929 C11.6362264,18.5538672 12.9680808,17.2220129 14.6110064,17.2220129 L14.6110064,17.2220129 C16.2539321,17.2220129 17.5857864,18.5538672 17.5857864,20.1967929 L17.5857864,23.249882" id="Path-8" stroke="#52B372" stroke-width="1.91999977" stroke-linecap="round"></path>
                        <path d="M10.08,5.88679245 L11.5200001,5.88679245 C11.7850967,5.88679245 12,6.10169575 12,6.3667924 L12,10.7924528 C12,13.5017742 9.80366104,15.6981132 7.09433962,15.6981132 L4.90566038,15.6981132 C2.19633896,15.6981132 3.3179618e-16,13.5017742 0,10.7924528 L0,6.3667924 C-3.24649762e-17,6.10169575 0.214903294,5.88679245 0.479999943,5.88679245 L1.92,5.88679245 L1.92,1.2 C1.92,0.5372583 2.4572583,1.21743675e-16 3.12,0 C3.7827417,-1.21743675e-16 4.32,0.5372583 4.32,1.2 L4.32,5.88679245 L7.68,5.88679245 L7.68,1.2 C7.68,0.5372583 8.2172583,1.21743675e-16 8.88,0 C9.5427417,-1.21743675e-16 10.08,0.5372583 10.08,1.2 L10.08,5.88679245 Z" id="Combined-Shape" fill="#028930"></path>
                    </g>
                </g>
            </g>
        </g>
    </g>
</svg>