<?xml version="1.0" encoding="UTF-8"?>
<svg width="39px" height="39px" viewBox="0 0 39 39" version="1.1" xmlns="http://www.w3.org/2000/svg" xmlns:xlink="http://www.w3.org/1999/xlink">
    <!-- Generator: sketchtool 52.2 (67145) - http://www.bohemiancoding.com/sketch -->
    <title>36955B56-68D6-4AEB-95EC-319326AFB705</title>
    <desc>Created with sketchtool.</desc>
    <g id="UI" stroke="none" stroke-width="1" fill="none" fill-rule="evenodd">
        <g id="awesome-design-tools-v3" transform="translate(-550.000000, -23.000000)" fill-rule="nonzero">
            <g id="tab-description" transform="translate(550.000000, 23.000000)">
                <g id="tools-icon-selected">
                    <circle id="Oval" fill="#D2E2FA" cx="19.5" cy="19.5" r="19.5"></circle>
                    <g id="pn-tool-icon-selected" transform="translate(20.000000, 18.500000) rotate(-315.000000) translate(-20.000000, -18.500000) translate(13.000000, 7.000000)">
                        <path d="M6.54347826,10.511544 C5.58624895,10.722836 4.86956522,11.5847555 4.86956522,12.615912 C4.86956522,13.8054982 5.82339336,14.7698482 7,14.7698482 C8.17660664,14.7698482 9.13043478,13.8054982 9.13043478,12.615912 C9.13043478,11.5847555 8.41375105,10.722836 7.45652174,10.511544 L7.45652174,0.0473742635 C7.49189492,0.0876465635 7.52213461,0.132673324 7.54626515,0.181466785 L13.7492354,12.7242607 C13.9084456,13.0461936 13.9212137,13.4223771 13.7842069,13.7546149 L11.7458758,18.6975139 C11.6509205,18.927778 11.4285933,19.0777206 11.1821249,19.0777206 L3.07506599,19.0777206 C2.83741516,19.0777206 2.62133189,18.9381909 2.521123,18.7200274 L0.24870057,13.7727652 C0.0915749076,13.430689 0.09722908,13.0347191 0.264056261,12.6973841 L6.45373485,0.181466785 C6.47832875,0.131736394 6.50864793,0.0868254917 6.54347826,0.0471430732 L6.54347826,10.511544 Z" id="Path" fill="#0054D7"></path>
                        <path d="M2.45268542,18.4623103 L11.8516624,18.4623103 L12.5813987,21.3273817 C12.667768,21.666483 12.4628884,22.0113951 12.1237871,22.0977645 C12.0726776,22.1107821 12.0201427,22.1173673 11.9674015,22.1173673 L2.33694632,22.1173673 C1.9870187,22.1173673 1.70334632,21.833695 1.70334632,21.4837673 C1.70334632,21.4310261 1.70993154,21.3784912 1.72294917,21.3273817 L2.45268542,18.4623103 Z" id="Rectangle" fill="#73A9FF"></path>
                    </g>
                </g>
            </g>
        </g>
    </g>
</svg>